# xmcd
#
# Track frame offsets:
#	150
#	9375
#	20580
#	29228
#	40943
#	53716
#	61606
#	71319
#	79374
#	90152
#	104665
#	115983
#
# Disc length: 1669 seconds
#
# Revision: 1
# Processed by: cddbd v1.5.2PL0 Copyright (c) Steve Scherf et al.
# Submitted via: audiograbber 1.83.01
#
DISCID=9506830c
DTITLE=Hormer and The Barnstormers - Bluegrass Banjos On Fire
DYEAR=1957
DGENRE=Bluegrass
TTITLE0=Beverly Hillbillies Theam (Ballad Of Jed Clampett)
TTITLE1=Fire On The Mountain
TTITLE2=Stay All Night
TTITLE3=Arkansas Traveler
TTITLE4=Careless Love
TTITLE5=Grandfather's Clock
TTITLE6=Cumberland Gap
TTITLE7=Goin' Up Cripple Creek
TTITLE8=Old' Joe Clark
TTITLE9=Camptown Races
TTITLE10=Ole' Dan Tucker
TTITLE11=Blue Grass Blossoms
EXTD=
EXTT0=
EXTT1=
EXTT2=
EXTT3=
EXTT4=
EXTT5=
EXTT6=
EXTT7=
EXTT8=
EXTT9=
EXTT10=
EXTT11=
PLAYORDER=
